# File created by Blade
# Date/Time:  Mon Sep 29 17:58:21 2014
# Frame Rate: 120.000 fps
#------------------------------------------------------
:FULLY-SPECIFIED
:DEGREES
529
root 0.059914 11.879946 -7.794677 40.677868 3.521231 -0.753946
Spine 43.447856 4.680155 1.291389
Head 20.371236 -11.929524 1.008428
LeftShoulder 18.965799 -10.394173 25.136503
LeftArm 45.449242 16.631516 -19.772779
LeftForeArm 54.525358 -0.000000 75.216569
LeftHand -35.729253 0.000000 40.927598
LeftHandThumb1 -26.253704 0.000000 33.147579
RightShoulder 11.486932 39.733806 -27.014963
RightArm 20.915287 -38.921615 53.376983
RightForeArm -55.471496 0.000000 70.212169
RightHand -2.904957 -0.000000 -26.379826
RightHandThumb1 -24.326973 -0.000000 -32.862282
LeftUpLeg -134.766394 42.901093 -10.566845
LeftLeg 132.001169 -0.000000 -0.000000
LeftFoot -32.268704 -15.421673 -21.388241
LeftToeBase 5.996705 -0.000000 -0.000000
RightUpLeg -131.748889 -35.818777 7.150941
RightLeg 132.842708 -0.000000 -0.000000
RightFoot -35.716026 -0.662901 20.693912
RightToeBase 3.948452 -0.000000 -0.000000
530
root 0.046806 11.963912 -7.818502 41.117626 3.661659 -0.737006
Spine 43.312464 4.384385 1.256600
Head 21.533970 -11.669993 0.501074
LeftShoulder 18.868754 -10.150610 25.033019
LeftArm 45.366238 16.273384 -19.432995
LeftForeArm 54.465577 -0.000000 75.427488
LeftHand -36.108605 -0.000000 41.219855
LeftHandThumb1 -26.253704 0.000000 33.147579
RightShoulder 11.722052 39.990052 -26.902319
RightArm 21.073831 -38.924037 53.153608
RightForeArm -55.614702 -0.000000 70.206747
RightHand -3.084986 -0.000000 -26.653986
RightHandThumb1 -24.326973 -0.000000 -32.862282
LeftUpLeg -135.184267 42.550891 -10.947120
LeftLeg 131.678999 -0.000000 -0.000000
LeftFoot -32.178533 -15.210265 -21.349044
LeftToeBase 5.962438 -0.000000 -0.000000
RightUpLeg -131.992635 -35.695200 7.451269
RightLeg 132.577609 -0.000000 -0.000000
RightFoot -35.764578 -0.700291 20.846368
RightToeBase 4.087365 -0.000000 -0.000000
531
root 0.027067 12.052098 -7.841656 41.511367 3.755596 -0.770367
Spine 43.262214 4.259363 1.254422
Head 22.422689 -11.795662 0.073778
LeftShoulder 18.845378 -10.012739 24.990478
LeftArm 45.263973 15.918564 -19.131749
LeftForeArm 54.405505 -0.000000 75.611269
LeftHand -36.381029 -0.000000 41.494842
LeftHandThumb1 -26.253704 0.000000 33.147579
RightShoulder 11.887979 40.260197 -26.840086
RightArm 21.138153 -38.906214 52.994864
RightForeArm -55.710158 -0.000000 70.162853
RightHand -3.146720 -0.000000 -27.040446
RightHandThumb1 -24.326973 -0.000000 -32.862282
LeftUpLeg -135.538282 42.298556 -11.278499
LeftLeg 131.332716 -0.000000 -0.000000
LeftFoot -32.078223 -15.064866 -21.350960
LeftToeBase 5.999916 -0.000000 -0.000000
RightUpLeg -132.133823 -35.474797 7.692958
RightLeg 132.310895 -0.000000 -0.000000
RightFoot -35.815428 -0.750495 21.005499
RightToeBase 3.864078 -0.000000 -0.000000
532
root 0.008169 12.149857 -7.862378 41.910206 3.833226 -0.774369
Spine 43.230262 4.197768 1.207429
Head 23.526567 -11.530467 -0.021826
LeftShoulder 18.888368 -9.951687 24.972731
LeftArm 45.124062 15.597173 -18.870167
LeftForeArm 54.421067 -0.000000 75.774862
LeftHand -36.639410 0.000000 41.616593
LeftHandThumb1 -26.253704 0.000000 33.147579
RightShoulder 12.031651 40.546994 -26.702859
RightArm 21.182461 -38.956759 52.734186
RightForeArm -55.736370 -0.000000 70.121605
RightHand -3.178476 -0.000000 -27.438716
RightHandThumb1 -24.326973 -0.000000 -32.862282
LeftUpLeg -135.844406 42.034694 -11.638672
LeftLeg 130.950419 -0.000000 -0.000000
LeftFoot -32.022453 -14.907337 -21.298943
LeftToeBase 6.191502 -0.000000 -0.000000
RightUpLeg -132.259069 -35.252006 7.910066
RightLeg 132.015923 -0.000000 -0.000000
RightFoot -35.868861 -0.864194 21.062915
RightToeBase 3.872017 -0.000000 -0.000000
533
root -0.010115 12.253652 -7.887242 42.381964 3.896037 -0.773630
Spine 43.113972 4.191117 1.146513
Head 24.560638 -11.372981 -0.026821
LeftShoulder 18.918376 -9.921723 24.961090
LeftArm 45.073606 15.316262 -18.625454
LeftForeArm 54.461990 -0.000000 75.835478
LeftHand -36.598059 -0.000000 41.733703
LeftHandThumb1 -26.253704 0.000000 33.147579
RightShoulder 12.144216 40.765269 -26.543635
RightArm 21.224832 -39.011808 52.404498
RightForeArm -55.726901 0.000000 70.153435
RightHand -3.278047 -0.000000 -27.714324
RightHandThumb1 -24.326973 -0.000000 -32.862282
LeftUpLeg -136.229557 41.737312 -12.069894
LeftLeg 130.562329 -0.000000 -0.000000
LeftFoot -31.934249 -14.770318 -21.294461
LeftToeBase 6.366098 -0.000000 -0.000000
RightUpLeg -132.457818 -34.984026 8.155371
RightLeg 131.690152 -0.000000 -0.000000
RightFoot -35.866776 -1.020045 20.984102
RightToeBase 3.734340 -0.000000 -0.000000
534
root -0.030981 12.363246 -7.912480 42.855469 3.939961 -0.765099
Spine 43.008563 4.148368 1.034201
Head 25.497177 -11.234092 -0.071135
LeftShoulder 18.885188 -9.851640 24.936965
LeftArm 45.018342 14.988288 -18.405401
LeftForeArm 54.574718 0.000000 75.863917
LeftHand -36.695627 0.000000 41.838926
LeftHandThumb1 -26.253704 0.000000 33.147579
RightShoulder 12.350971 40.974219 -26.369322
RightArm 21.257022 -38.990155 52.076088
RightForeArm -55.752202 -0.000000 70.209715
RightHand -3.387929 -0.000000 -27.883958
RightHandThumb1 -24.326973 -0.000000 -32.862282
LeftUpLeg -136.611767 41.456100 -12.529447
LeftLeg 130.157603 -0.000000 -0.000000
LeftFoot -31.801106 -14.581852 -21.246714
LeftToeBase 6.331569 -0.000000 -0.000000
RightUpLeg -132.618444 -34.706856 8.338705
RightLeg 131.351439 -0.000000 -0.000000
RightFoot -35.886928 -1.126975 21.041812
RightToeBase 3.690302 -0.000000 -0.000000
535
root -0.053844 12.480796 -7.941757 43.408779 4.027103 -0.764702
Spine 42.810506 4.012331 0.933336
Head 26.440768 -11.078458 -0.258887
LeftShoulder 18.813309 -9.755271 24.860297
LeftArm 44.924963 14.662588 -18.244339
LeftForeArm 54.762259 -0.000000 75.886259
LeftHand -36.783104 -0.000000 41.950473
LeftHandThumb1 -26.253704 0.000000 33.147579
RightShoulder 12.593073 41.198197 -26.172206
RightArm 21.318686 -38.968714 51.738555
RightForeArm -55.844485 0.000000 70.265940
RightHand -3.491087 -0.000000 -27.936301
RightHandThumb1 -24.326973 -0.000000 -32.862282
LeftUpLeg -137.024050 41.118707 -12.984066
LeftLeg 129.691473 -0.000000 -0.000000
LeftFoot -31.732445 -14.462102 -21.248641
LeftToeBase 6.343857 -0.000000 -0.000000
RightUpLeg -132.869803 -34.429831 8.628089
RightLeg 130.986282 -0.000000 -0.000000
RightFoot -35.908448 -1.204744 21.123720
RightToeBase 3.717885 -0.000000 -0.000000
536
root -0.073287 12.603194 -7.970661 43.915125 4.079304 -0.756132
Spine 42.703813 3.939029 0.867857
Head 27.293186 -10.980820 -0.523079
LeftShoulder 18.812618 -9.750077 24.722297
LeftArm 44.790011 14.320906 -18.088793
LeftForeArm 54.963343 -0.000000 75.906038
LeftHand -36.977248 -0.000000 42.158122
LeftHandThumb1 -26.253704 0.000000 33.147579
RightShoulder 12.747746 41.413241 -26.073102
RightArm 21.372633 -38.905378 51.403557
RightForeArm -55.907259 -0.000000 70.334106
RightHand -3.653956 -0.000000 -27.981061
RightHandThumb1 -24.326973 -0.000000 -32.862282
LeftUpLeg -137.366193 40.797588 -13.411943
LeftLeg 129.220102 -0.000000 -0.000000
LeftFoot -31.591892 -14.310345 -21.240491
LeftToeBase 6.215398 -0.000000 -0.000000
RightUpLeg -133.028695 -34.134443 8.826707
RightLeg 130.590620 -0.000000 -0.000000
RightFoot -35.934868 -1.327186 21.192842
RightToeBase 3.706764 -0.000000 -0.000000
